<?xml version="1.0" standalone="no"?><!DOCTYPE svg PUBLIC "-//W3C//DTD SVG 1.1//EN" "http://www.w3.org/Graphics/SVG/1.1/DTD/svg11.dtd"><svg t="1600689230849" class="icon" viewBox="0 0 1024 1024" version="1.1" xmlns="http://www.w3.org/2000/svg" p-id="9894" xmlns:xlink="http://www.w3.org/1999/xlink" width="200" height="200"><defs><style type="text/css"></style></defs><path d="M594.176 687.232c-40.192 59.584-81.152 105.6-150.016 105.6-46.976-7.552-66.304-40.832-56.064-74.688l88.576-289.664c2.112-7.04-1.472-14.72-8-16.96-6.592-2.24-19.392 6.144-30.464 18.112l-53.504 63.616c-1.472-10.688-0.192-28.352-0.192-35.456 40.256-59.648 106.304-106.688 151.168-106.688 42.624 4.288 62.72 37.952 55.296 74.88l-89.152 291.072a13.568 13.568 0 0 0 8.32 15.36c6.592 2.24 20.352-6.144 31.488-18.112l53.504-63.616c1.472 10.688-0.96 29.44-0.96 36.48z m-15.488-374.784c-33.92 0-61.376-24.32-61.376-60.16 0-35.968 27.52-60.288 61.376-60.288 33.856 0 61.312 24.32 61.312 60.224 0 35.904-27.52 60.224-61.312 60.224z" fill="#1296db" p-id="9895"></path><path d="M512 928a416 416 0 1 0 0-832 416 416 0 0 0 0 832zM512 1024A512 512 0 1 1 512 0a512 512 0 0 1 0 1024z" fill="#1296db" p-id="9896"></path></svg>