<?xml version="1.0" standalone="no"?><!DOCTYPE svg PUBLIC "-//W3C//DTD SVG 1.1//EN" "http://www.w3.org/Graphics/SVG/1.1/DTD/svg11.dtd"><svg t="1600695549350" class="icon" viewBox="0 0 1024 1024" version="1.1" xmlns="http://www.w3.org/2000/svg" p-id="7506" xmlns:xlink="http://www.w3.org/1999/xlink" width="200" height="200"><defs><style type="text/css"></style></defs><path d="M652.762537 307.899317H372.736v-44.756293c-0.099902-21.479024-17.682732-39.061854-39.061854-39.161756H173.630439c-21.379122 0.099902-39.061854 17.682732-39.061854 39.161756v128.274732h477.633561c6.693463-31.369366 20.679805-59.941463 40.560391-83.518439zM607.706537 431.079024c0-4.295805 0.39961-8.391805 0.599414-12.587707H92.609561c-18.282146 0.499512-27.672976 10.589659-28.172488 25.774829 0 2.697366 0.39961 5.794341 1.198829 8.99122l79.322537 306.600585c5.095024 21.27922 30.070634 40.56039 51.849366 40.260683h512.299707c21.878634 0.499512 46.854244-18.881561 51.949268-40.260683l35.365464-136.966244c-104.298146-1.698341-188.715707-87.015024-188.715707-191.812683z" p-id="7507" fill="#1296db"></path><path d="M799.818927 271.434927c-88.213854 0-159.744 71.530146-159.744 159.644097 0 88.213854 71.530146 159.744 159.744 159.744s159.744-71.729951 159.744-159.744-71.530146-159.644098-159.744-159.644097z m79.522341 181.922341h-57.244097v57.244098c0 12.387902-9.990244 22.278244-22.478049 22.278244-12.387902 0-22.278244-9.890341-22.278244-22.278244v-57.244098h-57.244098c-12.188098 0-22.278244-9.990244-22.278243-22.278244 0-12.188098 10.090146-22.478049 22.278243-22.478048h57.244098v-57.144196c0-12.387902 10.090146-22.278244 22.278244-22.278243 12.487805 0 22.478049 9.990244 22.478049 22.278243V408.600976h57.244097c12.387902 0 22.278244 10.090146 22.278244 22.478048s-9.990244 22.278244-22.278244 22.278244z" p-id="7508" fill="#1296db"></path></svg>