<?xml version="1.0" standalone="no"?><!DOCTYPE svg PUBLIC "-//W3C//DTD SVG 1.1//EN" "http://www.w3.org/Graphics/SVG/1.1/DTD/svg11.dtd"><svg t="1600687969868" class="icon" viewBox="0 0 1066 1024" version="1.1" xmlns="http://www.w3.org/2000/svg" p-id="7407" xmlns:xlink="http://www.w3.org/1999/xlink" width="208.203125" height="200"><defs><style type="text/css"></style></defs><path d="M405.248 672.768l-90.453333-90.496a21.333333 21.333333 0 0 1 0-30.165333l417.792-417.834667a21.333333 21.333333 0 0 1 30.165333 0l90.496 90.453333a21.333333 21.333333 0 0 1 0 30.208l-417.834667 417.834667a21.333333 21.333333 0 0 1-30.165333 0M337.152 821.034667c-57.770667 57.770667-191.36 44.8-239.616-3.413334 48.213333-48.298667 24.106667-120.746667 68.949333-167.253333a120.704 120.704 0 0 1 170.666667 170.666667M826.154667 840.832h-316.8a42.666667 42.666667 0 0 1 0-85.333333h316.8l-68.010667-49.408a106.581333 106.581333 0 0 1-12.672-161.706667l53.717333-53.717333a42.666667 42.666667 0 1 1 60.330667 60.330666l-53.717333 53.76a21.12 21.12 0 0 0-6.186667 16.725334 21.162667 21.162667 0 0 0 8.746667 15.573333l67.968 49.493333c30.464 22.101333 42.624 59.52 30.976 95.317334a84.053333 84.053333 0 0 1-81.152 58.965333" fill="#2c2c2c" p-id="7408"></path></svg>