<?xml version="1.0" standalone="no"?><!DOCTYPE svg PUBLIC "-//W3C//DTD SVG 1.1//EN" "http://www.w3.org/Graphics/SVG/1.1/DTD/svg11.dtd"><svg t="1600686046270" class="icon" viewBox="0 0 1024 1024" version="1.1" xmlns="http://www.w3.org/2000/svg" p-id="7140" xmlns:xlink="http://www.w3.org/1999/xlink" width="200" height="200"><defs><style type="text/css"></style></defs><path d="M113.777778 1011.358025H12.641975c-6.320988 0-12.641975-6.320988-12.641975-12.641976v25.283951h126.419753v-25.283951c0 6.320988-6.320988 12.641975-12.641975 12.641976z" p-id="7141" fill="#707070"></path><path d="M227.555556 688.987654l176.987654-31.604938-176.987654-176.987654-37.925926 170.666666c0 25.283951 18.962963 44.246914 37.925926 37.925926zM878.617284 189.62963c12.641975-12.641975 12.641975-31.604938 0-44.246914L745.876543 12.641975c-12.641975-12.641975-37.925926-12.641975-50.567901-6.320987l-379.259259 379.259259L499.358025 568.888889l379.259259-379.259259zM998.716049 758.518519h-101.135802c-6.320988 0-12.641975 6.320988-12.641975 12.641975v50.567901H126.419753v-50.567901c0-6.320988-6.320988-12.641975-12.641975-12.641975H12.641975c-6.320988 0-12.641975 6.320988-12.641975 12.641975h126.419753v227.555555-50.567901h758.518519v50.567901c0 6.320988 6.320988 12.641975 12.641975 12.641976h101.135802c6.320988 0 12.641975-6.320988 12.641976-12.641976v-227.555555c0-6.320988-6.320988-12.641975-12.641976-12.641975z" p-id="7142" fill="#707070"></path><path d="M0 771.160494v227.555555c0 6.320988 6.320988 12.641975 12.641975 12.641976h101.135803c6.320988 0 12.641975-6.320988 12.641975-12.641976v-227.555555H0z" p-id="7143" fill="#707070"></path></svg>