<?xml version="1.0" standalone="no"?><!DOCTYPE svg PUBLIC "-//W3C//DTD SVG 1.1//EN" "http://www.w3.org/Graphics/SVG/1.1/DTD/svg11.dtd"><svg t="1600685913166" class="icon" viewBox="0 0 1024 1024" version="1.1" xmlns="http://www.w3.org/2000/svg" p-id="2959" xmlns:xlink="http://www.w3.org/1999/xlink" width="200" height="200"><defs><style type="text/css"></style></defs><path d="M287.18592 694.944278H19.282146A19.360849 19.360849 0 0 0 0 714.226424v57.92514c0 10.624856 8.65729 19.360849 19.282146 19.360849h209.978633v212.339712c0 10.624856 8.65729 19.282146 19.282146 19.282146h57.92514c10.624856 0 19.282146-8.65729 19.282146-19.282146V733.50857a38.564292 38.564292 0 0 0-38.564291-38.564292zM306.468065 0h-57.92514a19.360849 19.360849 0 0 0-19.282146 19.282146v212.339712H19.282146A19.360849 19.360849 0 0 0 0 251.06141v57.92514c0 10.546153 8.65729 19.282146 19.282146 19.282146H287.264622a38.564292 38.564292 0 0 0 38.564292-38.564292V19.203443A19.360849 19.360849 0 0 0 306.468065 0z m697.305357 694.944278H736.027054a38.564292 38.564292 0 0 0-38.564292 38.564292v270.343555c0 10.624856 8.65729 19.282146 19.282146 19.282146h57.92514c10.624856 0 19.282146-8.65729 19.282146-19.282146v-212.339712h209.978634c10.624856 0 19.282146-8.65729 19.282146-19.360849v-57.92514a19.360849 19.360849 0 0 0-19.282146-19.282146z m0-463.32242h-209.89993V19.282146A19.360849 19.360849 0 0 0 774.591346 0h-57.92514a19.360849 19.360849 0 0 0-19.282146 19.282146V289.625701c0 21.407117 17.31458 38.564292 38.564291 38.564292h267.903774c10.624856 0 19.282146-8.65729 19.282146-19.203443v-57.92514a19.360849 19.360849 0 0 0-19.282146-19.360849z" p-id="2960" fill="#1296db"></path></svg>