<?xml version="1.0" standalone="no"?><!DOCTYPE svg PUBLIC "-//W3C//DTD SVG 1.1//EN" "http://www.w3.org/Graphics/SVG/1.1/DTD/svg11.dtd"><svg t="1600688114332" class="icon" viewBox="0 0 1024 1024" version="1.1" xmlns="http://www.w3.org/2000/svg" p-id="8198" xmlns:xlink="http://www.w3.org/1999/xlink" width="200" height="200"><defs><style type="text/css"></style></defs><path d="M619.44254437 434.84177909H505.87633169V321.27556511c0-22.71324227-15.14216238-37.85540466-37.85540466-37.85540336s-37.85540466 15.14216238-37.85540465 37.85540336v113.56621398H316.59930969c-22.71324227 0-37.85540466 15.14216238-37.85540464 37.85540336s15.14216238 37.85540466 37.85540464 37.85540466h113.56621269v113.56621398c0 22.71324227 15.14216238 37.85540466 37.85540465 37.85540336s37.85540466-15.14216238 37.85540466-37.85540336V510.55258711h113.56621268c22.71324227 0 37.85540466-15.14216238 37.85540466-37.85540466-0.11133935-22.71324227-15.14216238-37.85540466-37.85540466-37.85540336z m0 0" p-id="8199" fill="#1296db"></path><path d="M948.67322387 900.35191355L789.68052534 737.57367443c60.56864694-71.92526871 94.638511-166.56377972 94.638511-264.87649198 0-230.91796725-185.49148141-416.2981093-416.29810931-416.29810801-230.91796725 0-416.2981093 185.49148141-416.298108 416.29810801 0 230.8066279 185.49148141 416.2981093 416.298108 416.29810932 102.20959219 0 193.0625626-37.85540466 264.87649197-94.63851101l162.77823784 162.77823912c7.57108119 7.57108119 18.92770169 11.35662179 26.49878416 11.35662179 7.57108119 0 18.92770169-3.7855406 26.49878287-11.35662179 15.14216238-18.92770169 15.14216238-41.64094526 0-56.78310633zM127.43362704 472.69718245c0-189.27702201 151.42161734-340.58729999 340.58729999-340.58729998 189.27702201 0 340.58729999 151.42161734 340.58729999 340.58729998 0 189.27702201-151.42161734 340.58729999-340.58729999 340.58730129-189.27702201 0-340.58729999-151.42161734-340.58729999-340.58730129z m0 0" p-id="8200" fill="#1296db"></path></svg>